<?xml version="1.0" encoding="UTF-8"?><svg id="uuid-8058d7b9-9fb8-4e6e-8524-dd2ee9d695d3" xmlns="http://www.w3.org/2000/svg" viewBox="0 0 208 208"><rect id="uuid-7aad0b8e-8ac0-4445-8df2-7a57e832a0b5" width="208" height="208" fill="none"/><circle id="uuid-f690feb4-077a-4cba-a537-46f2dcc9f3d9" cx="104" cy="104" r="101.875" fill="#dfecfc"/><path d="m96.478,74.759h-24.028v-27.531h71.542v27.531h-25.649v15.132h-21.865v-15.132Zm-63.66,34.422h13.131v-13.131h-13.131v13.131Zm129.233-13.131v13.131h13.131v-13.131h-13.131Zm-77.464,78.032h47.266v-20.593h-47.266v20.593Zm-16.102-20.723l79.262.067v-63.502h-79.262v63.434Z" fill="#fff"/><path d="m102.623,61.124c-.072,2.815-2.413,5.039-5.228,4.967s-5.039-2.413-4.967-5.228c.072-2.815,2.412-5.038,5.227-4.967,2.815.071,5.04,2.412,4.968,5.227,0,0,0,0,0,.001Zm21.831-.002c.071-2.815-2.154-5.155-4.969-5.226-2.814-.071-5.154,2.153-5.226,4.967-.072,2.815,2.152,5.156,4.967,5.228,2.815.072,5.156-2.152,5.228-4.967,0,0,0-.001,0-.002Z" fill="#dfecfc"/><path d="m175.182,95.05h-5.566v-24.06s5.565,0,5.565,0c.552,0,1-.448,1-1v-10.507c0-.552-.448-1-1-1s-1,.448-1,1v9.507h-4.566v-5.009c0-.552-.448-1-1-1s-1,.448-1,1v5.009s-4.567,0-4.567,0v-9.507c0-.552-.448-1-1-1s-1,.448-1,1v10.507c0,.552.448,1,1,1h5.568v24.06s-5.564,0-5.564,0c-.552,0-1,.448-1,1v6.07h-12.304v-12.195c0-.015-.008-.027-.008-.042-.003-.072-.024-.139-.042-.208-.015-.058-.024-.116-.048-.169-.025-.054-.065-.099-.101-.149-.041-.058-.078-.116-.13-.163-.011-.01-.015-.024-.027-.034l-10.121-8.508c-.18-.151-.408-.234-.644-.234h-18.284v-4.658h24.649c.552,0,1-.448,1-1v-27.531c0-.014-.007-.025-.008-.039-.003-.071-.024-.137-.042-.205-.015-.059-.023-.119-.049-.174-.023-.051-.062-.092-.094-.139-.043-.062-.082-.124-.137-.174-.01-.009-.013-.021-.023-.03l-10.848-9.216c-.181-.153-.41-.238-.647-.238H62.738c-.015,0-.027.008-.042.008-.111.005-.221.024-.327.066-.008.003-.016.003-.024.006,0,0,0,0-.001,0-.108.046-.2.114-.283.191-.026.024-.046.051-.069.078-.054.062-.1.13-.137.203-.017.034-.034.065-.047.101-.039.104-.064.213-.066.327,0,.006-.004.012-.004.018,0,.002,0,.003,0,.005v27.639c0,.34.188.64.46.821l9.565,9.009c.046.043.102.064.153.097.052.034.099.076.157.099.12.049.247.076.375.076h12.906v4.658h-25.907c-.123,0-.239.029-.35.071-.034.013-.064.03-.096.046-.075.038-.143.083-.206.138-.028.024-.055.046-.079.073-.064.07-.117.149-.16.237-.009.019-.024.035-.032.055-.002.004-.005.007-.006.011-.043.11-.061.224-.064.337,0,.011-.006.019-.006.03l-.025,19.892h-11.475v-5.258c0-.552-.448-1-1-1h-13.131c-.552,0-1,.448-1,1v13.131c0,.553.448,1,1,1h5.566v28.185h-5.566c-.552,0-1,.447-1,1v10.753c0,.553.448,1,1,1s1-.447,1-1v-9.753h4.566v6.921c0,.553.448,1,1,1s1-.447,1-1v-6.921h4.567v9.759c0,.553.448,1,1,1s1-.447,1-1v-10.759c0-.553-.448-1-1-1h-5.567v-28.185h5.565c.552,0,1-.447,1-1v-5.874h11.472l-.052,41.384c0,.274.112.536.311.726l9.116,8.667c.042.041.095.059.142.091.056.038.106.083.17.108.117.047.239.072.363.073.004,0,.008.003.013.003l7.222.006v12.284c0,.275.114.538.314.728l7.881,7.434c.053.05.117.076.177.112.044.027.082.063.13.083.121.05.249.077.378.077.002,0,.003,0,.005,0h47.261c.552,0,1-.447,1-1v-19.669l14.893.012h0c.265,0,.52-.105.707-.293s.293-.441.293-.707v-30.391s0-.003,0-.005,0-.003,0-.005v-18.906h12.304v5.061c0,.553.448,1,1,1h13.131c.552,0,1-.447,1-1v-13.131c0-.552-.448-1-1-1Zm-141.363,13.131v-11.131h11.131v5.248s-.002.006-.002.01.002.006.002.01v5.864h-11.131Zm101.322,1.127c-.192-.188-.451-.281-.719-.286l-51.87.002-.11-.002c-.274-.02-.527.098-.718.287-.191.188-.299.444-.299.713v11.977l-11.939-.026v-31.047h77.262v31.105h-11.307v-12.009c0-.269-.108-.525-.299-.714Zm2.121-26.891l7.742,6.508h-25.661v-6.508h17.919Zm-19.919,6.473h-19.864v-13.131h19.864v13.131Zm23.927-42.662h-68.421l-7.603-7.215h67.53l8.493,7.215Zm-77.531-5.888l7.712,7.319v24.784l-7.711-7.263v-24.84Zm9.712,7.888h69.542v25.531h-24.645s-.003,0-.005,0h-21.864s-.003,0-.005,0h-23.023v-25.531Zm22.028,27.531v11.967l-8.122-6.776v-5.19h8.122Zm-9.484,6.657l7.801,6.51h-24.912l-6.913-6.508h24.023Zm-25.547,1.314l7.039,6.627v60.673l-7.115-6.765.076-60.535Zm70.407,89.353h-45.266v-18.593h45.266v18.593Zm-47.266-1.317l-5.881-5.547v-11.851l5.881.005v17.393Zm-14.102-19.405v-28.389l12.937.028h.002c.265,0,.519-.105.707-.292.188-.188.293-.442.293-.708v-11.977h50.016v12.039c.019.539.461.968,1.001.968h12.306v28.395l-77.262-.064Zm104.696-44.18h-11.131v-4.756c.032-.097.062-.197.062-.305s-.03-.207-.062-.305v-5.766h5.304c.085.024.169.053.261.053s.176-.029.261-.053h5.305v11.131Zm-76.813-41.091c.053.001.106.002.159.002,3.291,0,6.01-2.634,6.095-5.943v-.002c.042-1.628-.554-3.176-1.676-4.356-1.123-1.181-2.638-1.854-4.266-1.895-1.639-.051-3.176.554-4.356,1.675-1.181,1.123-1.854,2.637-1.896,4.265-.086,3.362,2.579,6.167,5.94,6.253Zm-2.667-9.068c.768-.729,1.766-1.127,2.821-1.127.036,0,.071,0,.107,0,2.26.058,4.051,1.943,3.994,4.203-.058,2.224-1.885,3.994-4.096,3.994-.036,0-.071,0-.106,0-1.095-.028-2.113-.481-2.867-1.274-.754-.794-1.154-1.834-1.126-2.929.028-1.094.48-2.112,1.274-2.866Zm24.499,9.068c.053.001.106.002.159.002,3.291,0,6.01-2.634,6.095-5.942v-.003c.041-1.629-.555-3.176-1.677-4.356s-2.638-1.853-4.267-1.894c-3.349-.104-6.165,2.58-6.25,5.94-.086,3.362,2.579,6.167,5.94,6.253Zm.155-10.196c.035,0,.07,0,.105,0,1.094.028,2.113.48,2.867,1.273.749.788,1.149,1.819,1.127,2.929-.058,2.26-1.98,4.073-4.203,3.993-1.095-.028-2.113-.481-2.867-1.274-.754-.794-1.154-1.834-1.126-2.929.057-2.223,1.884-3.994,4.096-3.994Z" fill="#807e7e"/></svg>